<svg width="20" height="18" viewBox="0 0 20 18" fill="none" xmlns="http://www.w3.org/2000/svg">
<path d="M17.0703 12.7109C17.3225 12.7109 17.5464 12.5496 17.6262 12.3103L19.9699 5.27906C20.0295 5.10035 19.9995 4.90395 19.8894 4.75117C19.7793 4.59836 19.6024 4.50781 19.4141 4.50781H4.67605L4.2698 2.07039C4.12797 1.2193 3.39875 0.601562 2.5359 0.601562H0.585938C0.262344 0.601562 0 0.863906 0 1.1875C0 1.51109 0.262344 1.77344 0.585938 1.77344H2.5359C2.82352 1.77344 3.06656 1.97934 3.11387 2.26305L4.76563 12.1735V13.2969C4.76563 13.9801 5.15766 14.573 5.72836 14.8638C5.61238 15.0982 5.54688 15.3619 5.54688 15.6406C5.54688 16.6099 6.33543 17.3984 7.30469 17.3984C8.27395 17.3984 9.0625 16.6099 9.0625 15.6406C9.0625 15.4352 9.02676 15.2381 8.96172 15.0547H13.4602C13.3951 15.2381 13.3594 15.4352 13.3594 15.6406C13.3594 16.6099 14.1479 17.3984 15.1172 17.3984C16.0864 17.3984 16.875 16.6099 16.875 15.6406C16.875 15.4352 16.8393 15.2381 16.7742 15.0547H17.0703C17.3939 15.0547 17.6563 14.7923 17.6563 14.4688C17.6563 14.1452 17.3939 13.8828 17.0703 13.8828H6.52344C6.20035 13.8828 5.9375 13.62 5.9375 13.2969V12.7109H17.0703ZM13.5547 9.19531H11.7969V8.02344H13.5547V9.19531ZM14.7266 8.02344H17.8198L17.4292 9.19531H14.7266V8.02344ZM11.7969 10.3672H13.5547V11.5391H11.7969V10.3672ZM10.625 11.5391H8.86719V10.3672H10.625V11.5391ZM11.7969 6.85156V5.67969H13.5547V6.85156H11.7969ZM10.625 6.85156H8.86719V5.67969H10.625V6.85156ZM10.625 8.02344V9.19531H8.86719V8.02344H10.625ZM7.69531 9.19531H5.45731L5.26199 8.02344H7.69531V9.19531ZM5.84793 11.5391L5.65262 10.3672H7.69531V11.5391H5.84793ZM14.7266 11.5391V10.3672H17.0386L16.648 11.5391H14.7266ZM18.2105 6.85156H14.7266V5.67969H18.6011L18.2105 6.85156ZM7.69531 5.67969V6.85156H5.06668L4.87137 5.67969H7.69531ZM7.89063 15.6406C7.89063 15.9637 7.62777 16.2266 7.30469 16.2266C6.9816 16.2266 6.71875 15.9637 6.71875 15.6406C6.71875 15.3175 6.9816 15.0547 7.30469 15.0547C7.62777 15.0547 7.89063 15.3175 7.89063 15.6406ZM15.7031 15.6406C15.7031 15.9637 15.4403 16.2266 15.1172 16.2266C14.7941 16.2266 14.5313 15.9637 14.5313 15.6406C14.5313 15.3175 14.7941 15.0547 15.1172 15.0547C15.4403 15.0547 15.7031 15.3175 15.7031 15.6406Z" fill="white"/>
</svg>
